ISO-10303-21;
HEADER;
/* Generated by software containing ST-Developer
 * from STEP Tools, Inc. (www.steptools.com) 
 */

FILE_DESCRIPTION(
/* description */ ('STEP AP242'),
/* implementation_level */ '2;1');

FILE_NAME(
/* name */ 'oak - v1.step',
/* time_stamp */ '2025-12-23T12:09:19-08:00',
/* author */ (''),
/* organization */ (''),
/* preprocessor_version */ 'ST-DEVELOPER v20.1',
/* originating_system */ 'Autodesk Translation Framework v14.21.0.0',
/* authorisation */ '');

FILE_SCHEMA (('AUTOMOTIVE_DESIGN { 1 0 10303 214 3 1 1 }'));
ENDSEC;

DATA;
#10=MECHANICAL_DESIGN_GEOMETRIC_PRESENTATION_REPRESENTATION('',(#13),#971);
#11=SHAPE_REPRESENTATION_RELATIONSHIP('SRR','None',#977,#12);
#12=ADVANCED_BREP_SHAPE_REPRESENTATION('',(#14),#970);
#13=STYLED_ITEM('',(#987),#14);
#14=MANIFOLD_SOLID_BREP('Body1',#587);
#15=CYLINDRICAL_SURFACE('',#620,0.0016);
#16=CYLINDRICAL_SURFACE('',#630,0.005);
#17=CYLINDRICAL_SURFACE('',#631,0.005);
#18=CYLINDRICAL_SURFACE('',#632,0.002);
#19=CYLINDRICAL_SURFACE('',#635,0.0016);
#20=CYLINDRICAL_SURFACE('',#644,0.005);
#21=CYLINDRICAL_SURFACE('',#645,0.005);
#22=CYLINDRICAL_SURFACE('',#646,0.002);
#23=ELLIPSE('',#610,0.00503989870734971,0.005);
#24=ELLIPSE('',#611,0.00503989870734971,0.005);
#25=ELLIPSE('',#612,0.00503989870734971,0.005);
#26=ELLIPSE('',#613,0.00503989870734971,0.005);
#27=ELLIPSE('',#624,0.00503989870734971,0.005);
#28=ELLIPSE('',#625,0.00503989870734971,0.005);
#29=ELLIPSE('',#638,0.00503989870734971,0.005);
#30=ELLIPSE('',#639,0.00503989870734971,0.005);
#31=FACE_BOUND('',#79,.T.);
#32=FACE_BOUND('',#80,.T.);
#33=FACE_BOUND('',#82,.T.);
#34=FACE_BOUND('',#83,.T.);
#35=FACE_BOUND('',#86,.T.);
#36=FACE_BOUND('',#87,.T.);
#37=FACE_BOUND('',#96,.T.);
#38=FACE_BOUND('',#108,.T.);
#39=CIRCLE('',#603,0.0016);
#40=CIRCLE('',#604,0.0016);
#41=CIRCLE('',#606,0.0016);
#42=CIRCLE('',#607,0.0016);
#43=CIRCLE('',#614,0.002);
#44=CIRCLE('',#615,0.002);
#45=CIRCLE('',#626,0.002);
#46=CIRCLE('',#640,0.002);
#47=FACE_OUTER_BOUND('',#77,.T.);
#48=FACE_OUTER_BOUND('',#78,.T.);
#49=FACE_OUTER_BOUND('',#81,.T.);
#50=FACE_OUTER_BOUND('',#84,.T.);
#51=FACE_OUTER_BOUND('',#85,.T.);
#52=FACE_OUTER_BOUND('',#88,.T.);
#53=FACE_OUTER_BOUND('',#89,.T.);
#54=FACE_OUTER_BOUND('',#90,.T.);
#55=FACE_OUTER_BOUND('',#91,.T.);
#56=FACE_OUTER_BOUND('',#92,.T.);
#57=FACE_OUTER_BOUND('',#93,.T.);
#58=FACE_OUTER_BOUND('',#94,.T.);
#59=FACE_OUTER_BOUND('',#95,.T.);
#60=FACE_OUTER_BOUND('',#97,.T.);
#61=FACE_OUTER_BOUND('',#98,.T.);
#62=FACE_OUTER_BOUND('',#99,.T.);
#63=FACE_OUTER_BOUND('',#100,.T.);
#64=FACE_OUTER_BOUND('',#101,.T.);
#65=FACE_OUTER_BOUND('',#102,.T.);
#66=FACE_OUTER_BOUND('',#103,.T.);
#67=FACE_OUTER_BOUND('',#104,.T.);
#68=FACE_OUTER_BOUND('',#105,.T.);
#69=FACE_OUTER_BOUND('',#106,.T.);
#70=FACE_OUTER_BOUND('',#107,.T.);
#71=FACE_OUTER_BOUND('',#109,.T.);
#72=FACE_OUTER_BOUND('',#110,.T.);
#73=FACE_OUTER_BOUND('',#111,.T.);
#74=FACE_OUTER_BOUND('',#112,.T.);
#75=FACE_OUTER_BOUND('',#113,.T.);
#76=FACE_OUTER_BOUND('',#114,.T.);
#77=EDGE_LOOP('',(#375,#376,#377,#378,#379,#380,#381,#382,#383,#384));
#78=EDGE_LOOP('',(#385,#386,#387,#388,#389,#390,#391,#392));
#79=EDGE_LOOP('',(#393));
#80=EDGE_LOOP('',(#394));
#81=EDGE_LOOP('',(#395,#396,#397,#398,#399,#400,#401,#402));
#82=EDGE_LOOP('',(#403));
#83=EDGE_LOOP('',(#404));
#84=EDGE_LOOP('',(#405,#406,#407,#408));
#85=EDGE_LOOP('',(#409,#410,#411,#412,#413,#414,#415,#416,#417,#418,#419,
#420));
#86=EDGE_LOOP('',(#421));
#87=EDGE_LOOP('',(#422));
#88=EDGE_LOOP('',(#423,#424,#425,#426));
#89=EDGE_LOOP('',(#427,#428,#429,#430));
#90=EDGE_LOOP('',(#431,#432,#433,#434));
#91=EDGE_LOOP('',(#435,#436,#437,#438));
#92=EDGE_LOOP('',(#439,#440,#441,#442));
#93=EDGE_LOOP('',(#443,#444,#445,#446));
#94=EDGE_LOOP('',(#447,#448,#449,#450));
#95=EDGE_LOOP('',(#451,#452,#453,#454,#455,#456));
#96=EDGE_LOOP('',(#457));
#97=EDGE_LOOP('',(#458,#459,#460,#461));
#98=EDGE_LOOP('',(#462,#463,#464,#465));
#99=EDGE_LOOP('',(#466,#467,#468,#469));
#100=EDGE_LOOP('',(#470,#471,#472,#473));
#101=EDGE_LOOP('',(#474,#475,#476,#477));
#102=EDGE_LOOP('',(#478,#479,#480,#481));
#103=EDGE_LOOP('',(#482,#483,#484,#485,#486,#487,#488,#489,#490,#491));
#104=EDGE_LOOP('',(#492,#493,#494,#495));
#105=EDGE_LOOP('',(#496,#497,#498,#499));
#106=EDGE_LOOP('',(#500,#501,#502,#503));
#107=EDGE_LOOP('',(#504,#505,#506,#507,#508,#509));
#108=EDGE_LOOP('',(#510));
#109=EDGE_LOOP('',(#511,#512,#513,#514));
#110=EDGE_LOOP('',(#515,#516,#517,#518));
#111=EDGE_LOOP('',(#519,#520,#521,#522));
#112=EDGE_LOOP('',(#523,#524,#525,#526));
#113=EDGE_LOOP('',(#527,#528,#529,#530));
#114=EDGE_LOOP('',(#531,#532,#533,#534));
#115=LINE('',#809,#179);
#116=LINE('',#811,#180);
#117=LINE('',#813,#181);
#118=LINE('',#815,#182);
#119=LINE('',#817,#183);
#120=LINE('',#819,#184);
#121=LINE('',#821,#185);
#122=LINE('',#823,#186);
#123=LINE('',#825,#187);
#124=LINE('',#826,#188);
#125=LINE('',#829,#189);
#126=LINE('',#831,#190);
#127=LINE('',#833,#191);
#128=LINE('',#835,#192);
#129=LINE('',#837,#193);
#130=LINE('',#839,#194);
#131=LINE('',#840,#195);
#132=LINE('',#848,#196);
#133=LINE('',#850,#197);
#134=LINE('',#852,#198);
#135=LINE('',#854,#199);
#136=LINE('',#855,#200);
#137=LINE('',#857,#201);
#138=LINE('',#858,#202);
#139=LINE('',#865,#203);
#140=LINE('',#866,#204);
#141=LINE('',#869,#205);
#142=LINE('',#873,#206);
#143=LINE('',#876,#207);
#144=LINE('',#878,#208);
#145=LINE('',#882,#209);
#146=LINE('',#886,#210);
#147=LINE('',#887,#211);
#148=LINE('',#894,#212);
#149=LINE('',#895,#213);
#150=LINE('',#898,#214);
#151=LINE('',#899,#215);
#152=LINE('',#901,#216);
#153=LINE('',#903,#217);
#154=LINE('',#905,#218);
#155=LINE('',#907,#219);
#156=LINE('',#908,#220);
#157=LINE('',#913,#221);
#158=LINE('',#916,#222);
#159=LINE('',#918,#223);
#160=LINE('',#923,#224);
#161=LINE('',#925,#225);
#162=LINE('',#927,#226);
#163=LINE('',#928,#227);
#164=LINE('',#932,#228);
#165=LINE('',#936,#229);
#166=LINE('',#937,#230);
#167=LINE('',#938,#231);
#168=LINE('',#939,#232);
#169=LINE('',#941,#233);
#170=LINE('',#943,#234);
#171=LINE('',#948,#235);
#172=LINE('',#951,#236);
#173=LINE('',#953,#237);
#174=LINE('',#958,#238);
#175=LINE('',#960,#239);
#176=LINE('',#962,#240);
#177=LINE('',#963,#241);
#178=LINE('',#967,#242);
#179=VECTOR('',#651,1.);
#180=VECTOR('',#652,1.);
#181=VECTOR('',#653,1.);
#182=VECTOR('',#654,1.);
#183=VECTOR('',#655,1.);
#184=VECTOR('',#656,1.);
#185=VECTOR('',#657,1.);
#186=VECTOR('',#658,1.);
#187=VECTOR('',#659,1.);
#188=VECTOR('',#660,1.);
#189=VECTOR('',#663,1.);
#190=VECTOR('',#664,1.);
#191=VECTOR('',#665,1.);
#192=VECTOR('',#666,1.);
#193=VECTOR('',#667,1.);
#194=VECTOR('',#668,1.);
#195=VECTOR('',#669,1.);
#196=VECTOR('',#676,1.);
#197=VECTOR('',#677,1.);
#198=VECTOR('',#678,1.);
#199=VECTOR('',#679,1.);
#200=VECTOR('',#680,1.);
#201=VECTOR('',#681,1.);
#202=VECTOR('',#682,1.);
#203=VECTOR('',#689,1.);
#204=VECTOR('',#690,1.);
#205=VECTOR('',#693,1.);
#206=VECTOR('',#696,1.);
#207=VECTOR('',#699,1.);
#208=VECTOR('',#700,1.);
#209=VECTOR('',#703,1.);
#210=VECTOR('',#706,1.);
#211=VECTOR('',#707,1.);
#212=VECTOR('',#714,1.);
#213=VECTOR('',#715,1.);
#214=VECTOR('',#718,1.);
#215=VECTOR('',#719,1.);
#216=VECTOR('',#722,1.);
#217=VECTOR('',#725,1.);
#218=VECTOR('',#728,0.0016);
#219=VECTOR('',#731,1.);
#220=VECTOR('',#732,1.);
#221=VECTOR('',#737,1.);
#222=VECTOR('',#740,1.);
#223=VECTOR('',#741,1.);
#224=VECTOR('',#748,1.);
#225=VECTOR('',#751,1.);
#226=VECTOR('',#754,1.);
#227=VECTOR('',#755,1.);
#228=VECTOR('',#762,0.002);
#229=VECTOR('',#765,1.);
#230=VECTOR('',#766,1.);
#231=VECTOR('',#767,1.);
#232=VECTOR('',#768,1.);
#233=VECTOR('',#771,1.);
#234=VECTOR('',#774,0.0016);
#235=VECTOR('',#779,1.);
#236=VECTOR('',#782,1.);
#237=VECTOR('',#783,1.);
#238=VECTOR('',#790,1.);
#239=VECTOR('',#793,1.);
#240=VECTOR('',#796,1.);
#241=VECTOR('',#797,1.);
#242=VECTOR('',#804,0.002);
#243=VERTEX_POINT('',#807);
#244=VERTEX_POINT('',#808);
#245=VERTEX_POINT('',#810);
#246=VERTEX_POINT('',#812);
#247=VERTEX_POINT('',#814);
#248=VERTEX_POINT('',#816);
#249=VERTEX_POINT('',#818);
#250=VERTEX_POINT('',#820);
#251=VERTEX_POINT('',#822);
#252=VERTEX_POINT('',#824);
#253=VERTEX_POINT('',#828);
#254=VERTEX_POINT('',#830);
#255=VERTEX_POINT('',#832);
#256=VERTEX_POINT('',#834);
#257=VERTEX_POINT('',#836);
#258=VERTEX_POINT('',#838);
#259=VERTEX_POINT('',#841);
#260=VERTEX_POINT('',#843);
#261=VERTEX_POINT('',#846);
#262=VERTEX_POINT('',#847);
#263=VERTEX_POINT('',#849);
#264=VERTEX_POINT('',#851);
#265=VERTEX_POINT('',#853);
#266=VERTEX_POINT('',#856);
#267=VERTEX_POINT('',#859);
#268=VERTEX_POINT('',#861);
#269=VERTEX_POINT('',#864);
#270=VERTEX_POINT('',#868);
#271=VERTEX_POINT('',#870);
#272=VERTEX_POINT('',#872);
#273=VERTEX_POINT('',#874);
#274=VERTEX_POINT('',#877);
#275=VERTEX_POINT('',#879);
#276=VERTEX_POINT('',#881);
#277=VERTEX_POINT('',#883);
#278=VERTEX_POINT('',#885);
#279=VERTEX_POINT('',#888);
#280=VERTEX_POINT('',#890);
#281=VERTEX_POINT('',#893);
#282=VERTEX_POINT('',#897);
#283=VERTEX_POINT('',#911);
#284=VERTEX_POINT('',#912);
#285=VERTEX_POINT('',#914);
#286=VERTEX_POINT('',#917);
#287=VERTEX_POINT('',#920);
#288=VERTEX_POINT('',#934);
#289=VERTEX_POINT('',#935);
#290=VERTEX_POINT('',#946);
#291=VERTEX_POINT('',#947);
#292=VERTEX_POINT('',#949);
#293=VERTEX_POINT('',#952);
#294=VERTEX_POINT('',#955);
#295=EDGE_CURVE('',#243,#244,#115,.T.);
#296=EDGE_CURVE('',#244,#245,#116,.T.);
#297=EDGE_CURVE('',#246,#245,#117,.T.);
#298=EDGE_CURVE('',#247,#246,#118,.T.);
#299=EDGE_CURVE('',#248,#247,#119,.T.);
#300=EDGE_CURVE('',#249,#248,#120,.T.);
#301=EDGE_CURVE('',#250,#249,#121,.T.);
#302=EDGE_CURVE('',#251,#250,#122,.T.);
#303=EDGE_CURVE('',#252,#251,#123,.T.);
#304=EDGE_CURVE('',#243,#252,#124,.T.);
#305=EDGE_CURVE('',#248,#253,#125,.T.);
#306=EDGE_CURVE('',#254,#253,#126,.T.);
#307=EDGE_CURVE('',#254,#255,#127,.T.);
#308=EDGE_CURVE('',#256,#255,#128,.T.);
#309=EDGE_CURVE('',#256,#257,#129,.T.);
#310=EDGE_CURVE('',#257,#258,#130,.T.);
#311=EDGE_CURVE('',#249,#258,#131,.T.);
#312=EDGE_CURVE('',#259,#259,#39,.T.);
#313=EDGE_CURVE('',#260,#260,#40,.T.);
#314=EDGE_CURVE('',#261,#262,#132,.T.);
#315=EDGE_CURVE('',#261,#263,#133,.T.);
#316=EDGE_CURVE('',#264,#263,#134,.T.);
#317=EDGE_CURVE('',#265,#264,#135,.T.);
#318=EDGE_CURVE('',#251,#265,#136,.T.);
#319=EDGE_CURVE('',#250,#266,#137,.T.);
#320=EDGE_CURVE('',#262,#266,#138,.T.);
#321=EDGE_CURVE('',#267,#267,#41,.F.);
#322=EDGE_CURVE('',#268,#268,#42,.F.);
#323=EDGE_CURVE('',#269,#265,#139,.T.);
#324=EDGE_CURVE('',#252,#269,#140,.T.);
#325=EDGE_CURVE('',#270,#245,#141,.T.);
#326=EDGE_CURVE('',#270,#271,#23,.T.);
#327=EDGE_CURVE('',#271,#272,#142,.T.);
#328=EDGE_CURVE('',#272,#273,#24,.T.);
#329=EDGE_CURVE('',#273,#252,#143,.T.);
#330=EDGE_CURVE('',#274,#269,#144,.T.);
#331=EDGE_CURVE('',#275,#274,#25,.T.);
#332=EDGE_CURVE('',#276,#275,#145,.T.);
#333=EDGE_CURVE('',#277,#276,#26,.T.);
#334=EDGE_CURVE('',#277,#278,#146,.T.);
#335=EDGE_CURVE('',#245,#278,#147,.T.);
#336=EDGE_CURVE('',#279,#279,#43,.T.);
#337=EDGE_CURVE('',#280,#280,#44,.T.);
#338=EDGE_CURVE('',#281,#278,#148,.T.);
#339=EDGE_CURVE('',#246,#281,#149,.T.);
#340=EDGE_CURVE('',#282,#281,#150,.T.);
#341=EDGE_CURVE('',#247,#282,#151,.T.);
#342=EDGE_CURVE('',#253,#282,#152,.T.);
#343=EDGE_CURVE('',#266,#258,#153,.T.);
#344=EDGE_CURVE('',#260,#267,#154,.T.);
#345=EDGE_CURVE('',#262,#257,#155,.T.);
#346=EDGE_CURVE('',#261,#256,#156,.T.);
#347=EDGE_CURVE('',#283,#284,#157,.T.);
#348=EDGE_CURVE('',#284,#285,#27,.T.);
#349=EDGE_CURVE('',#285,#244,#158,.T.);
#350=EDGE_CURVE('',#286,#243,#159,.T.);
#351=EDGE_CURVE('',#286,#283,#28,.T.);
#352=EDGE_CURVE('',#287,#287,#45,.T.);
#353=EDGE_CURVE('',#273,#286,#160,.F.);
#354=EDGE_CURVE('',#285,#270,#161,.T.);
#355=EDGE_CURVE('',#271,#284,#162,.F.);
#356=EDGE_CURVE('',#283,#272,#163,.T.);
#357=EDGE_CURVE('',#280,#287,#164,.T.);
#358=EDGE_CURVE('',#288,#289,#165,.T.);
#359=EDGE_CURVE('',#288,#269,#166,.T.);
#360=EDGE_CURVE('',#264,#254,#167,.T.);
#361=EDGE_CURVE('',#289,#278,#168,.T.);
#362=EDGE_CURVE('',#263,#255,#169,.T.);
#363=EDGE_CURVE('',#259,#268,#170,.T.);
#364=EDGE_CURVE('',#290,#291,#171,.T.);
#365=EDGE_CURVE('',#292,#290,#29,.T.);
#366=EDGE_CURVE('',#292,#288,#172,.T.);
#367=EDGE_CURVE('',#293,#289,#173,.T.);
#368=EDGE_CURVE('',#291,#293,#30,.T.);
#369=EDGE_CURVE('',#294,#294,#46,.T.);
#370=EDGE_CURVE('',#274,#292,#174,.F.);
#371=EDGE_CURVE('',#293,#277,#175,.T.);
#372=EDGE_CURVE('',#290,#275,#176,.T.);
#373=EDGE_CURVE('',#276,#291,#177,.F.);
#374=EDGE_CURVE('',#279,#294,#178,.T.);
#375=ORIENTED_EDGE('',*,*,#295,.T.);
#376=ORIENTED_EDGE('',*,*,#296,.T.);
#377=ORIENTED_EDGE('',*,*,#297,.F.);
#378=ORIENTED_EDGE('',*,*,#298,.F.);
#379=ORIENTED_EDGE('',*,*,#299,.F.);
#380=ORIENTED_EDGE('',*,*,#300,.F.);
#381=ORIENTED_EDGE('',*,*,#301,.F.);
#382=ORIENTED_EDGE('',*,*,#302,.F.);
#383=ORIENTED_EDGE('',*,*,#303,.F.);
#384=ORIENTED_EDGE('',*,*,#304,.F.);
#385=ORIENTED_EDGE('',*,*,#305,.T.);
#386=ORIENTED_EDGE('',*,*,#306,.F.);
#387=ORIENTED_EDGE('',*,*,#307,.T.);
#388=ORIENTED_EDGE('',*,*,#308,.F.);
#389=ORIENTED_EDGE('',*,*,#309,.T.);
#390=ORIENTED_EDGE('',*,*,#310,.T.);
#391=ORIENTED_EDGE('',*,*,#311,.F.);
#392=ORIENTED_EDGE('',*,*,#300,.T.);
#393=ORIENTED_EDGE('',*,*,#312,.F.);
#394=ORIENTED_EDGE('',*,*,#313,.T.);
#395=ORIENTED_EDGE('',*,*,#314,.F.);
#396=ORIENTED_EDGE('',*,*,#315,.T.);
#397=ORIENTED_EDGE('',*,*,#316,.F.);
#398=ORIENTED_EDGE('',*,*,#317,.F.);
#399=ORIENTED_EDGE('',*,*,#318,.F.);
#400=ORIENTED_EDGE('',*,*,#302,.T.);
#401=ORIENTED_EDGE('',*,*,#319,.T.);
#402=ORIENTED_EDGE('',*,*,#320,.F.);
#403=ORIENTED_EDGE('',*,*,#321,.T.);
#404=ORIENTED_EDGE('',*,*,#322,.F.);
#405=ORIENTED_EDGE('',*,*,#318,.T.);
#406=ORIENTED_EDGE('',*,*,#323,.F.);
#407=ORIENTED_EDGE('',*,*,#324,.F.);
#408=ORIENTED_EDGE('',*,*,#303,.T.);
#409=ORIENTED_EDGE('',*,*,#325,.F.);
#410=ORIENTED_EDGE('',*,*,#326,.T.);
#411=ORIENTED_EDGE('',*,*,#327,.T.);
#412=ORIENTED_EDGE('',*,*,#328,.T.);
#413=ORIENTED_EDGE('',*,*,#329,.T.);
#414=ORIENTED_EDGE('',*,*,#324,.T.);
#415=ORIENTED_EDGE('',*,*,#330,.F.);
#416=ORIENTED_EDGE('',*,*,#331,.F.);
#417=ORIENTED_EDGE('',*,*,#332,.F.);
#418=ORIENTED_EDGE('',*,*,#333,.F.);
#419=ORIENTED_EDGE('',*,*,#334,.T.);
#420=ORIENTED_EDGE('',*,*,#335,.F.);
#421=ORIENTED_EDGE('',*,*,#336,.F.);
#422=ORIENTED_EDGE('',*,*,#337,.T.);
#423=ORIENTED_EDGE('',*,*,#335,.T.);
#424=ORIENTED_EDGE('',*,*,#338,.F.);
#425=ORIENTED_EDGE('',*,*,#339,.F.);
#426=ORIENTED_EDGE('',*,*,#297,.T.);
#427=ORIENTED_EDGE('',*,*,#339,.T.);
#428=ORIENTED_EDGE('',*,*,#340,.F.);
#429=ORIENTED_EDGE('',*,*,#341,.F.);
#430=ORIENTED_EDGE('',*,*,#298,.T.);
#431=ORIENTED_EDGE('',*,*,#341,.T.);
#432=ORIENTED_EDGE('',*,*,#342,.F.);
#433=ORIENTED_EDGE('',*,*,#305,.F.);
#434=ORIENTED_EDGE('',*,*,#299,.T.);
#435=ORIENTED_EDGE('',*,*,#343,.F.);
#436=ORIENTED_EDGE('',*,*,#319,.F.);
#437=ORIENTED_EDGE('',*,*,#301,.T.);
#438=ORIENTED_EDGE('',*,*,#311,.T.);
#439=ORIENTED_EDGE('',*,*,#313,.F.);
#440=ORIENTED_EDGE('',*,*,#344,.T.);
#441=ORIENTED_EDGE('',*,*,#321,.F.);
#442=ORIENTED_EDGE('',*,*,#344,.F.);
#443=ORIENTED_EDGE('',*,*,#314,.T.);
#444=ORIENTED_EDGE('',*,*,#345,.T.);
#445=ORIENTED_EDGE('',*,*,#309,.F.);
#446=ORIENTED_EDGE('',*,*,#346,.F.);
#447=ORIENTED_EDGE('',*,*,#320,.T.);
#448=ORIENTED_EDGE('',*,*,#343,.T.);
#449=ORIENTED_EDGE('',*,*,#310,.F.);
#450=ORIENTED_EDGE('',*,*,#345,.F.);
#451=ORIENTED_EDGE('',*,*,#347,.T.);
#452=ORIENTED_EDGE('',*,*,#348,.T.);
#453=ORIENTED_EDGE('',*,*,#349,.T.);
#454=ORIENTED_EDGE('',*,*,#295,.F.);
#455=ORIENTED_EDGE('',*,*,#350,.F.);
#456=ORIENTED_EDGE('',*,*,#351,.T.);
#457=ORIENTED_EDGE('',*,*,#352,.F.);
#458=ORIENTED_EDGE('',*,*,#329,.F.);
#459=ORIENTED_EDGE('',*,*,#353,.T.);
#460=ORIENTED_EDGE('',*,*,#350,.T.);
#461=ORIENTED_EDGE('',*,*,#304,.T.);
#462=ORIENTED_EDGE('',*,*,#349,.F.);
#463=ORIENTED_EDGE('',*,*,#354,.T.);
#464=ORIENTED_EDGE('',*,*,#325,.T.);
#465=ORIENTED_EDGE('',*,*,#296,.F.);
#466=ORIENTED_EDGE('',*,*,#327,.F.);
#467=ORIENTED_EDGE('',*,*,#355,.T.);
#468=ORIENTED_EDGE('',*,*,#347,.F.);
#469=ORIENTED_EDGE('',*,*,#356,.T.);
#470=ORIENTED_EDGE('',*,*,#348,.F.);
#471=ORIENTED_EDGE('',*,*,#355,.F.);
#472=ORIENTED_EDGE('',*,*,#326,.F.);
#473=ORIENTED_EDGE('',*,*,#354,.F.);
#474=ORIENTED_EDGE('',*,*,#351,.F.);
#475=ORIENTED_EDGE('',*,*,#353,.F.);
#476=ORIENTED_EDGE('',*,*,#328,.F.);
#477=ORIENTED_EDGE('',*,*,#356,.F.);
#478=ORIENTED_EDGE('',*,*,#337,.F.);
#479=ORIENTED_EDGE('',*,*,#357,.T.);
#480=ORIENTED_EDGE('',*,*,#352,.T.);
#481=ORIENTED_EDGE('',*,*,#357,.F.);
#482=ORIENTED_EDGE('',*,*,#358,.F.);
#483=ORIENTED_EDGE('',*,*,#359,.T.);
#484=ORIENTED_EDGE('',*,*,#323,.T.);
#485=ORIENTED_EDGE('',*,*,#317,.T.);
#486=ORIENTED_EDGE('',*,*,#360,.T.);
#487=ORIENTED_EDGE('',*,*,#306,.T.);
#488=ORIENTED_EDGE('',*,*,#342,.T.);
#489=ORIENTED_EDGE('',*,*,#340,.T.);
#490=ORIENTED_EDGE('',*,*,#338,.T.);
#491=ORIENTED_EDGE('',*,*,#361,.F.);
#492=ORIENTED_EDGE('',*,*,#362,.T.);
#493=ORIENTED_EDGE('',*,*,#307,.F.);
#494=ORIENTED_EDGE('',*,*,#360,.F.);
#495=ORIENTED_EDGE('',*,*,#316,.T.);
#496=ORIENTED_EDGE('',*,*,#312,.T.);
#497=ORIENTED_EDGE('',*,*,#363,.T.);
#498=ORIENTED_EDGE('',*,*,#322,.T.);
#499=ORIENTED_EDGE('',*,*,#363,.F.);
#500=ORIENTED_EDGE('',*,*,#315,.F.);
#501=ORIENTED_EDGE('',*,*,#346,.T.);
#502=ORIENTED_EDGE('',*,*,#308,.T.);
#503=ORIENTED_EDGE('',*,*,#362,.F.);
#504=ORIENTED_EDGE('',*,*,#364,.F.);
#505=ORIENTED_EDGE('',*,*,#365,.F.);
#506=ORIENTED_EDGE('',*,*,#366,.T.);
#507=ORIENTED_EDGE('',*,*,#358,.T.);
#508=ORIENTED_EDGE('',*,*,#367,.F.);
#509=ORIENTED_EDGE('',*,*,#368,.F.);
#510=ORIENTED_EDGE('',*,*,#369,.T.);
#511=ORIENTED_EDGE('',*,*,#330,.T.);
#512=ORIENTED_EDGE('',*,*,#359,.F.);
#513=ORIENTED_EDGE('',*,*,#366,.F.);
#514=ORIENTED_EDGE('',*,*,#370,.F.);
#515=ORIENTED_EDGE('',*,*,#367,.T.);
#516=ORIENTED_EDGE('',*,*,#361,.T.);
#517=ORIENTED_EDGE('',*,*,#334,.F.);
#518=ORIENTED_EDGE('',*,*,#371,.F.);
#519=ORIENTED_EDGE('',*,*,#332,.T.);
#520=ORIENTED_EDGE('',*,*,#372,.F.);
#521=ORIENTED_EDGE('',*,*,#364,.T.);
#522=ORIENTED_EDGE('',*,*,#373,.F.);
#523=ORIENTED_EDGE('',*,*,#368,.T.);
#524=ORIENTED_EDGE('',*,*,#371,.T.);
#525=ORIENTED_EDGE('',*,*,#333,.T.);
#526=ORIENTED_EDGE('',*,*,#373,.T.);
#527=ORIENTED_EDGE('',*,*,#365,.T.);
#528=ORIENTED_EDGE('',*,*,#372,.T.);
#529=ORIENTED_EDGE('',*,*,#331,.T.);
#530=ORIENTED_EDGE('',*,*,#370,.T.);
#531=ORIENTED_EDGE('',*,*,#336,.T.);
#532=ORIENTED_EDGE('',*,*,#374,.T.);
#533=ORIENTED_EDGE('',*,*,#369,.F.);
#534=ORIENTED_EDGE('',*,*,#374,.F.);
#535=PLANE('',#601);
#536=PLANE('',#602);
#537=PLANE('',#605);
#538=PLANE('',#608);
#539=PLANE('',#609);
#540=PLANE('',#616);
#541=PLANE('',#617);
#542=PLANE('',#618);
#543=PLANE('',#619);
#544=PLANE('',#621);
#545=PLANE('',#622);
#546=PLANE('',#623);
#547=PLANE('',#627);
#548=PLANE('',#628);
#549=PLANE('',#629);
#550=PLANE('',#633);
#551=PLANE('',#634);
#552=PLANE('',#636);
#553=PLANE('',#637);
#554=PLANE('',#641);
#555=PLANE('',#642);
#556=PLANE('',#643);
#557=ADVANCED_FACE('',(#47),#535,.T.);
#558=ADVANCED_FACE('',(#48,#31,#32),#536,.T.);
#559=ADVANCED_FACE('',(#49,#33,#34),#537,.T.);
#560=ADVANCED_FACE('',(#50),#538,.T.);
#561=ADVANCED_FACE('',(#51,#35,#36),#539,.T.);
#562=ADVANCED_FACE('',(#52),#540,.T.);
#563=ADVANCED_FACE('',(#53),#541,.T.);
#564=ADVANCED_FACE('',(#54),#542,.T.);
#565=ADVANCED_FACE('',(#55),#543,.T.);
#566=ADVANCED_FACE('',(#56),#15,.F.);
#567=ADVANCED_FACE('',(#57),#544,.T.);
#568=ADVANCED_FACE('',(#58),#545,.T.);
#569=ADVANCED_FACE('',(#59,#37),#546,.T.);
#570=ADVANCED_FACE('',(#60),#547,.F.);
#571=ADVANCED_FACE('',(#61),#548,.T.);
#572=ADVANCED_FACE('',(#62),#549,.T.);
#573=ADVANCED_FACE('',(#63),#16,.T.);
#574=ADVANCED_FACE('',(#64),#17,.T.);
#575=ADVANCED_FACE('',(#65),#18,.F.);
#576=ADVANCED_FACE('',(#66),#550,.T.);
#577=ADVANCED_FACE('',(#67),#551,.T.);
#578=ADVANCED_FACE('',(#68),#19,.F.);
#579=ADVANCED_FACE('',(#69),#552,.T.);
#580=ADVANCED_FACE('',(#70,#38),#553,.T.);
#581=ADVANCED_FACE('',(#71),#554,.F.);
#582=ADVANCED_FACE('',(#72),#555,.T.);
#583=ADVANCED_FACE('',(#73),#556,.T.);
#584=ADVANCED_FACE('',(#74),#20,.T.);
#585=ADVANCED_FACE('',(#75),#21,.T.);
#586=ADVANCED_FACE('',(#76),#22,.F.);
#587=CLOSED_SHELL('',(#557,#558,#559,#560,#561,#562,#563,#564,#565,#566,
#567,#568,#569,#570,#571,#572,#573,#574,#575,#576,#577,#578,#579,#580,#581,
#582,#583,#584,#585,#586));
#588=DERIVED_UNIT_ELEMENT(#590,1.);
#589=DERIVED_UNIT_ELEMENT(#972,-3.);
#590=(
MASS_UNIT()
NAMED_UNIT(*)
SI_UNIT(.KILO.,.GRAM.)
);
#591=DERIVED_UNIT((#588,#589));
#592=MEASURE_REPRESENTATION_ITEM('density measure',
POSITIVE_RATIO_MEASURE(7850.),#591);
#593=PROPERTY_DEFINITION_REPRESENTATION(#598,#595);
#594=PROPERTY_DEFINITION_REPRESENTATION(#599,#596);
#595=REPRESENTATION('material name',(#597),#970);
#596=REPRESENTATION('density',(#592),#970);
#597=DESCRIPTIVE_REPRESENTATION_ITEM('Steel','Steel');
#598=PROPERTY_DEFINITION('material property','material name',#979);
#599=PROPERTY_DEFINITION('material property','density of part',#979);
#600=AXIS2_PLACEMENT_3D('',#805,#647,#648);
#601=AXIS2_PLACEMENT_3D('',#806,#649,#650);
#602=AXIS2_PLACEMENT_3D('',#827,#661,#662);
#603=AXIS2_PLACEMENT_3D('',#842,#670,#671);
#604=AXIS2_PLACEMENT_3D('',#844,#672,#673);
#605=AXIS2_PLACEMENT_3D('',#845,#674,#675);
#606=AXIS2_PLACEMENT_3D('',#860,#683,#684);
#607=AXIS2_PLACEMENT_3D('',#862,#685,#686);
#608=AXIS2_PLACEMENT_3D('',#863,#687,#688);
#609=AXIS2_PLACEMENT_3D('',#867,#691,#692);
#610=AXIS2_PLACEMENT_3D('',#871,#694,#695);
#611=AXIS2_PLACEMENT_3D('',#875,#697,#698);
#612=AXIS2_PLACEMENT_3D('',#880,#701,#702);
#613=AXIS2_PLACEMENT_3D('',#884,#704,#705);
#614=AXIS2_PLACEMENT_3D('',#889,#708,#709);
#615=AXIS2_PLACEMENT_3D('',#891,#710,#711);
#616=AXIS2_PLACEMENT_3D('',#892,#712,#713);
#617=AXIS2_PLACEMENT_3D('',#896,#716,#717);
#618=AXIS2_PLACEMENT_3D('',#900,#720,#721);
#619=AXIS2_PLACEMENT_3D('',#902,#723,#724);
#620=AXIS2_PLACEMENT_3D('',#904,#726,#727);
#621=AXIS2_PLACEMENT_3D('',#906,#729,#730);
#622=AXIS2_PLACEMENT_3D('',#909,#733,#734);
#623=AXIS2_PLACEMENT_3D('',#910,#735,#736);
#624=AXIS2_PLACEMENT_3D('',#915,#738,#739);
#625=AXIS2_PLACEMENT_3D('',#919,#742,#743);
#626=AXIS2_PLACEMENT_3D('',#921,#744,#745);
#627=AXIS2_PLACEMENT_3D('',#922,#746,#747);
#628=AXIS2_PLACEMENT_3D('',#924,#749,#750);
#629=AXIS2_PLACEMENT_3D('',#926,#752,#753);
#630=AXIS2_PLACEMENT_3D('',#929,#756,#757);
#631=AXIS2_PLACEMENT_3D('',#930,#758,#759);
#632=AXIS2_PLACEMENT_3D('',#931,#760,#761);
#633=AXIS2_PLACEMENT_3D('',#933,#763,#764);
#634=AXIS2_PLACEMENT_3D('',#940,#769,#770);
#635=AXIS2_PLACEMENT_3D('',#942,#772,#773);
#636=AXIS2_PLACEMENT_3D('',#944,#775,#776);
#637=AXIS2_PLACEMENT_3D('',#945,#777,#778);
#638=AXIS2_PLACEMENT_3D('',#950,#780,#781);
#639=AXIS2_PLACEMENT_3D('',#954,#784,#785);
#640=AXIS2_PLACEMENT_3D('',#956,#786,#787);
#641=AXIS2_PLACEMENT_3D('',#957,#788,#789);
#642=AXIS2_PLACEMENT_3D('',#959,#791,#792);
#643=AXIS2_PLACEMENT_3D('',#961,#794,#795);
#644=AXIS2_PLACEMENT_3D('',#964,#798,#799);
#645=AXIS2_PLACEMENT_3D('',#965,#800,#801);
#646=AXIS2_PLACEMENT_3D('',#966,#802,#803);
#647=DIRECTION('axis',(0.,0.,1.));
#648=DIRECTION('refdir',(1.,0.,0.));
#649=DIRECTION('center_axis',(0.,-1.,0.));
#650=DIRECTION('ref_axis',(1.,0.,0.));
#651=DIRECTION('',(0.719339800338651,0.,-0.694658370458997));
#652=DIRECTION('',(-0.779494124126418,0.,-0.626409538921933));
#653=DIRECTION('',(-1.,0.,0.));
#654=DIRECTION('',(0.719339800338651,0.,-0.694658370458997));
#655=DIRECTION('',(9.09177391738478E-17,0.,-1.));
#656=DIRECTION('',(1.,0.,0.));
#657=DIRECTION('',(0.,0.,1.));
#658=DIRECTION('',(-1.,0.,0.));
#659=DIRECTION('',(7.60207536292217E-17,0.,1.));
#660=DIRECTION('',(-0.779494124126418,0.,-0.626409538921933));
#661=DIRECTION('center_axis',(0.,0.,1.));
#662=DIRECTION('ref_axis',(1.,0.,0.));
#663=DIRECTION('',(0.,1.,0.));
#664=DIRECTION('',(1.,0.,0.));
#665=DIRECTION('',(0.,-1.,0.));
#666=DIRECTION('',(-1.,0.,0.));
#667=DIRECTION('',(1.3010426069826E-16,-1.,0.));
#668=DIRECTION('',(-1.,0.,0.));
#669=DIRECTION('',(0.,1.,0.));
#670=DIRECTION('center_axis',(0.,0.,1.));
#671=DIRECTION('ref_axis',(-1.,0.,0.));
#672=DIRECTION('center_axis',(0.,0.,-1.));
#673=DIRECTION('ref_axis',(-1.,0.,0.));
#674=DIRECTION('center_axis',(0.,0.,-1.));
#675=DIRECTION('ref_axis',(-1.,0.,0.));
#676=DIRECTION('',(1.3010426069826E-16,-1.,0.));
#677=DIRECTION('',(-1.,0.,0.));
#678=DIRECTION('',(0.,-1.,0.));
#679=DIRECTION('',(-1.,0.,0.));
#680=DIRECTION('',(0.,1.,0.));
#681=DIRECTION('',(0.,1.,0.));
#682=DIRECTION('',(-1.,0.,0.));
#683=DIRECTION('center_axis',(0.,0.,-1.));
#684=DIRECTION('ref_axis',(-1.,0.,0.));
#685=DIRECTION('center_axis',(0.,0.,1.));
#686=DIRECTION('ref_axis',(-1.,0.,0.));
#687=DIRECTION('center_axis',(-1.,0.,7.60207536292217E-17));
#688=DIRECTION('ref_axis',(7.60207536292217E-17,0.,1.));
#689=DIRECTION('',(7.60207536292217E-17,0.,1.));
#690=DIRECTION('',(0.,1.,0.));
#691=DIRECTION('center_axis',(-0.694658370458997,0.,-0.719339800338651));
#692=DIRECTION('ref_axis',(-0.719339800338651,0.,0.694658370458997));
#693=DIRECTION('',(0.,1.,0.));
#694=DIRECTION('center_axis',(-0.694658370458997,0.,-0.719339800338651));
#695=DIRECTION('ref_axis',(-0.719339800338651,0.,0.694658370458997));
#696=DIRECTION('',(-0.719339800338651,0.,0.694658370458997));
#697=DIRECTION('center_axis',(-0.694658370458997,0.,-0.719339800338651));
#698=DIRECTION('ref_axis',(0.719339800338651,0.,-0.694658370458997));
#699=DIRECTION('',(0.,1.,0.));
#700=DIRECTION('',(0.,-1.,0.));
#701=DIRECTION('center_axis',(0.694658370458997,0.,0.719339800338651));
#702=DIRECTION('ref_axis',(0.719339800338651,0.,-0.694658370458997));
#703=DIRECTION('',(-0.719339800338651,0.,0.694658370458997));
#704=DIRECTION('center_axis',(0.694658370458997,0.,0.719339800338651));
#705=DIRECTION('ref_axis',(-0.719339800338651,0.,0.694658370458997));
#706=DIRECTION('',(0.,-1.,0.));
#707=DIRECTION('',(0.,1.,0.));
#708=DIRECTION('center_axis',(-0.694658370458997,0.,-0.719339800338651));
#709=DIRECTION('ref_axis',(0.719339800338651,0.,-0.694658370458997));
#710=DIRECTION('center_axis',(0.694658370458997,0.,0.719339800338651));
#711=DIRECTION('ref_axis',(0.719339800338651,0.,-0.694658370458997));
#712=DIRECTION('center_axis',(0.,0.,-1.));
#713=DIRECTION('ref_axis',(-1.,0.,0.));
#714=DIRECTION('',(-1.,0.,0.));
#715=DIRECTION('',(0.,1.,0.));
#716=DIRECTION('center_axis',(0.694658370458997,0.,0.719339800338651));
#717=DIRECTION('ref_axis',(0.719339800338651,0.,-0.694658370458997));
#718=DIRECTION('',(0.719339800338651,0.,-0.694658370458997));
#719=DIRECTION('',(0.,1.,0.));
#720=DIRECTION('center_axis',(1.,0.,9.09177391738478E-17));
#721=DIRECTION('ref_axis',(9.09177391738478E-17,0.,-1.));
#722=DIRECTION('',(9.09177391738478E-17,0.,-1.));
#723=DIRECTION('center_axis',(-1.,0.,0.));
#724=DIRECTION('ref_axis',(0.,0.,1.));
#725=DIRECTION('',(0.,0.,1.));
#726=DIRECTION('center_axis',(0.,0.,-1.));
#727=DIRECTION('ref_axis',(-1.,0.,0.));
#728=DIRECTION('',(0.,0.,-1.));
#729=DIRECTION('center_axis',(-1.,-1.3010426069826E-16,0.));
#730=DIRECTION('ref_axis',(1.3010426069826E-16,-1.,0.));
#731=DIRECTION('',(0.,0.,1.));
#732=DIRECTION('',(0.,0.,1.));
#733=DIRECTION('center_axis',(0.,1.,0.));
#734=DIRECTION('ref_axis',(0.,0.,1.));
#735=DIRECTION('center_axis',(0.694658370458997,0.,0.719339800338652));
#736=DIRECTION('ref_axis',(0.719339800338652,0.,-0.694658370458997));
#737=DIRECTION('',(0.719339800338651,0.,-0.694658370458997));
#738=DIRECTION('center_axis',(0.694658370458997,0.,0.719339800338652));
#739=DIRECTION('ref_axis',(-0.719339800338652,0.,0.694658370458997));
#740=DIRECTION('',(0.,1.,0.));
#741=DIRECTION('',(0.,1.,0.));
#742=DIRECTION('center_axis',(0.694658370458997,0.,0.719339800338652));
#743=DIRECTION('ref_axis',(0.719339800338652,0.,-0.694658370458997));
#744=DIRECTION('center_axis',(0.694658370458997,0.,0.719339800338651));
#745=DIRECTION('ref_axis',(0.719339800338651,0.,-0.694658370458997));
#746=DIRECTION('center_axis',(0.626409538921933,0.,-0.779494124126418));
#747=DIRECTION('ref_axis',(-0.779494124126418,0.,-0.626409538921933));
#748=DIRECTION('',(-0.779494124126418,0.,-0.626409538921933));
#749=DIRECTION('center_axis',(0.626409538921933,0.,-0.779494124126418));
#750=DIRECTION('ref_axis',(-0.779494124126418,0.,-0.626409538921933));
#751=DIRECTION('',(-0.779494124126418,0.,-0.626409538921933));
#752=DIRECTION('center_axis',(0.,-1.,0.));
#753=DIRECTION('ref_axis',(1.,0.,0.));
#754=DIRECTION('',(-0.779494124126418,0.,-0.626409538921933));
#755=DIRECTION('',(-0.779494124126418,0.,-0.626409538921933));
#756=DIRECTION('center_axis',(-0.779494124126418,0.,-0.626409538921933));
#757=DIRECTION('ref_axis',(-0.626409538921933,0.,0.779494124126418));
#758=DIRECTION('center_axis',(0.779494124126418,0.,0.626409538921933));
#759=DIRECTION('ref_axis',(0.626409538921933,0.,-0.779494124126418));
#760=DIRECTION('center_axis',(0.694658370458997,0.,0.719339800338651));
#761=DIRECTION('ref_axis',(0.719339800338651,0.,-0.694658370458997));
#762=DIRECTION('',(0.694658370458997,0.,0.719339800338651));
#763=DIRECTION('center_axis',(0.,1.,0.));
#764=DIRECTION('ref_axis',(1.,0.,0.));
#765=DIRECTION('',(0.719339800338651,0.,-0.694658370458997));
#766=DIRECTION('',(-0.779494124126418,0.,-0.626409538921933));
#767=DIRECTION('',(0.,0.,1.));
#768=DIRECTION('',(-0.779494124126418,0.,-0.626409538921933));
#769=DIRECTION('center_axis',(-1.,0.,0.));
#770=DIRECTION('ref_axis',(0.,0.,1.));
#771=DIRECTION('',(0.,0.,1.));
#772=DIRECTION('center_axis',(0.,0.,-1.));
#773=DIRECTION('ref_axis',(-1.,0.,0.));
#774=DIRECTION('',(0.,0.,-1.));
#775=DIRECTION('center_axis',(0.,-1.,0.));
#776=DIRECTION('ref_axis',(0.,0.,1.));
#777=DIRECTION('center_axis',(0.694658370458997,0.,0.719339800338652));
#778=DIRECTION('ref_axis',(0.719339800338652,0.,-0.694658370458997));
#779=DIRECTION('',(0.719339800338651,0.,-0.694658370458997));
#780=DIRECTION('center_axis',(-0.694658370458997,0.,-0.719339800338652));
#781=DIRECTION('ref_axis',(0.719339800338652,0.,-0.694658370458997));
#782=DIRECTION('',(0.,-1.,0.));
#783=DIRECTION('',(0.,-1.,0.));
#784=DIRECTION('center_axis',(-0.694658370458997,0.,-0.719339800338652));
#785=DIRECTION('ref_axis',(-0.719339800338652,0.,0.694658370458997));
#786=DIRECTION('center_axis',(-0.694658370458997,0.,-0.719339800338651));
#787=DIRECTION('ref_axis',(0.719339800338651,0.,-0.694658370458997));
#788=DIRECTION('center_axis',(0.626409538921933,0.,-0.779494124126418));
#789=DIRECTION('ref_axis',(-0.779494124126418,0.,-0.626409538921933));
#790=DIRECTION('',(-0.779494124126418,0.,-0.626409538921933));
#791=DIRECTION('center_axis',(0.626409538921933,0.,-0.779494124126418));
#792=DIRECTION('ref_axis',(-0.779494124126418,0.,-0.626409538921933));
#793=DIRECTION('',(-0.779494124126418,0.,-0.626409538921933));
#794=DIRECTION('center_axis',(0.,1.,0.));
#795=DIRECTION('ref_axis',(1.,0.,0.));
#796=DIRECTION('',(-0.779494124126418,0.,-0.626409538921933));
#797=DIRECTION('',(-0.779494124126418,0.,-0.626409538921933));
#798=DIRECTION('center_axis',(-0.779494124126418,0.,-0.626409538921933));
#799=DIRECTION('ref_axis',(-0.626409538921933,0.,0.779494124126418));
#800=DIRECTION('center_axis',(0.779494124126418,0.,0.626409538921933));
#801=DIRECTION('ref_axis',(0.626409538921933,0.,-0.779494124126418));
#802=DIRECTION('center_axis',(0.694658370458997,0.,0.719339800338651));
#803=DIRECTION('ref_axis',(0.719339800338651,0.,-0.694658370458997));
#804=DIRECTION('',(0.694658370458997,0.,0.719339800338651));
#805=CARTESIAN_POINT('',(0.,0.,0.));
#806=CARTESIAN_POINT('Origin',(0.00754316629139926,-0.02,-0.013307266963672));
#807=CARTESIAN_POINT('',(0.00275,-0.02,-0.0172900715621611));
#808=CARTESIAN_POINT('',(0.0142594368054184,-0.02,-0.0284046054895051));
#809=CARTESIAN_POINT('',(0.00850471840270921,-0.02,-0.0228473385258331));
#810=CARTESIAN_POINT('',(0.0115094368054184,-0.02,-0.030614533927344));
#811=CARTESIAN_POINT('',(0.0128844368054184,-0.02,-0.0295095697084245));
#812=CARTESIAN_POINT('',(0.0215863325827985,-0.02,-0.030614533927344));
#813=CARTESIAN_POINT('',(0.0165478846941085,-0.02,-0.030614533927344));
#814=CARTESIAN_POINT('',(0.0055,-0.02,-0.0150801431243222));
#815=CARTESIAN_POINT('',(0.0135431662913993,-0.02,-0.0228473385258331));
#816=CARTESIAN_POINT('',(0.0055,-0.02,0.004));
#817=CARTESIAN_POINT('',(0.0055,-0.02,-0.00554007156216108));
#818=CARTESIAN_POINT('',(-0.0065,-0.02,0.004));
#819=CARTESIAN_POINT('',(-0.00325,-0.02,0.004));
#820=CARTESIAN_POINT('',(-0.0065,-0.02,0.));
#821=CARTESIAN_POINT('',(-0.0065,-0.02,0.002));
#822=CARTESIAN_POINT('',(0.,-0.02,0.));
#823=CARTESIAN_POINT('',(-0.00325,-0.02,0.));
#824=CARTESIAN_POINT('',(-1.48240469576982E-18,-0.02,-0.0195));
#825=CARTESIAN_POINT('',(-7.41202347884911E-19,-0.02,-0.00975));
#826=CARTESIAN_POINT('',(0.001375,-0.02,-0.0183950357810805));
#827=CARTESIAN_POINT('Origin',(-0.00325,-0.02,0.004));
#828=CARTESIAN_POINT('',(0.0055,0.02,0.004));
#829=CARTESIAN_POINT('',(0.0055,-0.02,0.004));
#830=CARTESIAN_POINT('',(-0.0065,0.02,0.004));
#831=CARTESIAN_POINT('',(-0.00325,0.02,0.004));
#832=CARTESIAN_POINT('',(-0.0065,0.005,0.004));
#833=CARTESIAN_POINT('',(-0.0065,0.02,0.004));
#834=CARTESIAN_POINT('',(-0.0015,0.005,0.004));
#835=CARTESIAN_POINT('',(-0.004,0.005,0.004));
#836=CARTESIAN_POINT('',(-0.0015,-0.005,0.004));
#837=CARTESIAN_POINT('',(-0.0015,-0.0025,0.004));
#838=CARTESIAN_POINT('',(-0.0065,-0.005,0.004));
#839=CARTESIAN_POINT('',(-0.004,-0.005,0.004));
#840=CARTESIAN_POINT('',(-0.0065,-0.02,0.004));
#841=CARTESIAN_POINT('',(-0.0019,0.01,0.004));
#842=CARTESIAN_POINT('Origin',(-0.0035,0.01,0.004));
#843=CARTESIAN_POINT('',(-0.0019,-0.01,0.004));
#844=CARTESIAN_POINT('Origin',(-0.0035,-0.01,0.004));
#845=CARTESIAN_POINT('Origin',(-0.00325,-0.02,0.));
#846=CARTESIAN_POINT('',(-0.0015,0.005,0.));
#847=CARTESIAN_POINT('',(-0.0015,-0.005,0.));
#848=CARTESIAN_POINT('',(-0.0015,-0.0025,0.));
#849=CARTESIAN_POINT('',(-0.0065,0.005,0.));
#850=CARTESIAN_POINT('',(-0.004,0.005,0.));
#851=CARTESIAN_POINT('',(-0.0065,0.02,0.));
#852=CARTESIAN_POINT('',(-0.0065,0.02,0.));
#853=CARTESIAN_POINT('',(0.,0.02,0.));
#854=CARTESIAN_POINT('',(-0.00325,0.02,0.));
#855=CARTESIAN_POINT('',(0.,-0.02,0.));
#856=CARTESIAN_POINT('',(-0.0065,-0.005,0.));
#857=CARTESIAN_POINT('',(-0.0065,-0.02,0.));
#858=CARTESIAN_POINT('',(-0.004,-0.005,0.));
#859=CARTESIAN_POINT('',(-0.0019,-0.01,0.));
#860=CARTESIAN_POINT('Origin',(-0.0035,-0.01,0.));
#861=CARTESIAN_POINT('',(-0.0019,0.01,0.));
#862=CARTESIAN_POINT('Origin',(-0.0035,0.01,0.));
#863=CARTESIAN_POINT('Origin',(-7.41202347884911E-19,-0.02,-0.00975));
#864=CARTESIAN_POINT('',(-1.48240469576982E-18,0.02,-0.0195));
#865=CARTESIAN_POINT('',(-7.41202347884911E-19,0.02,-0.00975));
#866=CARTESIAN_POINT('',(-1.48240469576982E-18,-0.02,-0.0195));
#867=CARTESIAN_POINT('Origin',(0.00575471840270921,-0.02,-0.025057266963672));
#868=CARTESIAN_POINT('',(0.0115094368054184,-0.037,-0.030614533927344));
#869=CARTESIAN_POINT('',(0.0115094368054184,-0.042,-0.030614533927344));
#870=CARTESIAN_POINT('',(0.00788403707554645,-0.042,-0.027113526104018));
#871=CARTESIAN_POINT('Origin',(0.00788403707554645,-0.037,-0.027113526104018));
#872=CARTESIAN_POINT('',(0.00362539972987196,-0.042,-0.0230010078233259));
#873=CARTESIAN_POINT('',(0.00575471840270921,-0.042,-0.025057266963672));
#874=CARTESIAN_POINT('',(-1.48240469576982E-18,-0.037,-0.0195));
#875=CARTESIAN_POINT('Origin',(0.00362539972987196,-0.037,-0.0230010078233259));
#876=CARTESIAN_POINT('',(-1.48240469576982E-18,-0.042,-0.0195));
#877=CARTESIAN_POINT('',(-1.48240469576982E-18,0.037,-0.0195));
#878=CARTESIAN_POINT('',(-1.48240469576982E-18,0.042,-0.0195));
#879=CARTESIAN_POINT('',(0.00362539972987196,0.042,-0.0230010078233259));
#880=CARTESIAN_POINT('Origin',(0.00362539972987196,0.037,-0.0230010078233259));
#881=CARTESIAN_POINT('',(0.00788403707554645,0.042,-0.027113526104018));
#882=CARTESIAN_POINT('',(0.00575471840270921,0.042,-0.025057266963672));
#883=CARTESIAN_POINT('',(0.0115094368054184,0.037,-0.030614533927344));
#884=CARTESIAN_POINT('Origin',(0.00788403707554645,0.037,-0.027113526104018));
#885=CARTESIAN_POINT('',(0.0115094368054184,0.02,-0.030614533927344));
#886=CARTESIAN_POINT('',(0.0115094368054184,0.042,-0.030614533927344));
#887=CARTESIAN_POINT('',(0.0115094368054184,-0.02,-0.030614533927344));
#888=CARTESIAN_POINT('',(0.00431603880203191,0.0375,-0.023667950222754));
#889=CARTESIAN_POINT('Origin',(0.00575471840270921,0.0375,-0.025057266963672));
#890=CARTESIAN_POINT('',(0.00431603880203191,-0.0375,-0.023667950222754));
#891=CARTESIAN_POINT('Origin',(0.00575471840270921,-0.0375,-0.025057266963672));
#892=CARTESIAN_POINT('Origin',(0.0165478846941085,-0.02,-0.030614533927344));
#893=CARTESIAN_POINT('',(0.0215863325827985,0.02,-0.030614533927344));
#894=CARTESIAN_POINT('',(0.0165478846941085,0.02,-0.030614533927344));
#895=CARTESIAN_POINT('',(0.0215863325827985,-0.02,-0.030614533927344));
#896=CARTESIAN_POINT('Origin',(0.0135431662913993,-0.02,-0.0228473385258331));
#897=CARTESIAN_POINT('',(0.0055,0.02,-0.0150801431243222));
#898=CARTESIAN_POINT('',(0.0135431662913993,0.02,-0.0228473385258331));
#899=CARTESIAN_POINT('',(0.0055,-0.02,-0.0150801431243222));
#900=CARTESIAN_POINT('Origin',(0.0055,-0.02,-0.00554007156216108));
#901=CARTESIAN_POINT('',(0.0055,0.02,-0.00554007156216108));
#902=CARTESIAN_POINT('Origin',(-0.0065,-0.02,0.002));
#903=CARTESIAN_POINT('',(-0.0065,-0.005,-0.0306165339273439));
#904=CARTESIAN_POINT('Origin',(-0.0035,-0.01,0.004));
#905=CARTESIAN_POINT('',(-0.0019,-0.01,0.004));
#906=CARTESIAN_POINT('Origin',(-0.0015,-0.0025,-0.0306165339273439));
#907=CARTESIAN_POINT('',(-0.0015,-0.005,-0.0306165339273439));
#908=CARTESIAN_POINT('',(-0.0015,0.005,-0.0306165339273439));
#909=CARTESIAN_POINT('Origin',(-0.004,-0.005,-0.0306165339273439));
#910=CARTESIAN_POINT('Origin',(0.00850471840270921,-0.042,-0.0228473385258331));
#911=CARTESIAN_POINT('',(0.00637539972987196,-0.042,-0.020791079385487));
#912=CARTESIAN_POINT('',(0.0106340370755465,-0.042,-0.0249035976661791));
#913=CARTESIAN_POINT('',(0.00850471840270921,-0.042,-0.0228473385258331));
#914=CARTESIAN_POINT('',(0.0142594368054184,-0.037,-0.0284046054895051));
#915=CARTESIAN_POINT('Origin',(0.0106340370755465,-0.037,-0.0249035976661791));
#916=CARTESIAN_POINT('',(0.0142594368054184,-0.042,-0.0284046054895051));
#917=CARTESIAN_POINT('',(0.00275,-0.037,-0.0172900715621611));
#918=CARTESIAN_POINT('',(0.00275,-0.042,-0.0172900715621611));
#919=CARTESIAN_POINT('Origin',(0.00637539972987196,-0.037,-0.020791079385487));
#920=CARTESIAN_POINT('',(0.00674734309863841,-0.0375,-0.0211502609215687));
#921=CARTESIAN_POINT('Origin',(0.0081860226993157,-0.0375,-0.0225395776624867));
#922=CARTESIAN_POINT('Origin',(0.001375,-0.042,-0.0183950357810805));
#923=CARTESIAN_POINT('',(0.00275,-0.037,-0.0172900715621611));
#924=CARTESIAN_POINT('Origin',(0.0128844368054184,-0.042,-0.0295095697084245));
#925=CARTESIAN_POINT('',(0.0128844368054184,-0.037,-0.0295095697084245));
#926=CARTESIAN_POINT('Origin',(0.00754316629139926,-0.042,-0.013307266963672));
#927=CARTESIAN_POINT('',(0.0144182756934675,-0.042,-0.0218625443798838));
#928=CARTESIAN_POINT('',(0.00313204769460966,-0.042,-0.0233974706206321));
#929=CARTESIAN_POINT('Origin',(0.00975238911080876,-0.037,-0.0256120990877924));
#930=CARTESIAN_POINT('Origin',(0.0107391626922731,-0.037,-0.0172843143430875));
#931=CARTESIAN_POINT('Origin',(0.00575471840270921,-0.0375,-0.025057266963672));
#932=CARTESIAN_POINT('',(0.00431603880203191,-0.0375,-0.023667950222754));
#933=CARTESIAN_POINT('Origin',(0.00754316629139926,0.02,-0.013307266963672));
#934=CARTESIAN_POINT('',(0.00275,0.02,-0.0172900715621611));
#935=CARTESIAN_POINT('',(0.0142594368054184,0.02,-0.0284046054895051));
#936=CARTESIAN_POINT('',(0.00850471840270921,0.02,-0.0228473385258331));
#937=CARTESIAN_POINT('',(0.001375,0.02,-0.0183950357810805));
#938=CARTESIAN_POINT('',(-0.0065,0.02,0.002));
#939=CARTESIAN_POINT('',(0.0128844368054184,0.02,-0.0295095697084245));
#940=CARTESIAN_POINT('Origin',(-0.0065,0.02,0.002));
#941=CARTESIAN_POINT('',(-0.0065,0.005,-0.0306165339273439));
#942=CARTESIAN_POINT('Origin',(-0.0035,0.01,0.004));
#943=CARTESIAN_POINT('',(-0.0019,0.01,0.004));
#944=CARTESIAN_POINT('Origin',(-0.004,0.005,-0.0306165339273439));
#945=CARTESIAN_POINT('Origin',(0.00850471840270921,0.042,-0.0228473385258331));
#946=CARTESIAN_POINT('',(0.00637539972987196,0.042,-0.020791079385487));
#947=CARTESIAN_POINT('',(0.0106340370755465,0.042,-0.0249035976661791));
#948=CARTESIAN_POINT('',(0.00850471840270921,0.042,-0.0228473385258331));
#949=CARTESIAN_POINT('',(0.00275,0.037,-0.0172900715621611));
#950=CARTESIAN_POINT('Origin',(0.00637539972987196,0.037,-0.020791079385487));
#951=CARTESIAN_POINT('',(0.00275,0.042,-0.0172900715621611));
#952=CARTESIAN_POINT('',(0.0142594368054184,0.037,-0.0284046054895051));
#953=CARTESIAN_POINT('',(0.0142594368054184,0.042,-0.0284046054895051));
#954=CARTESIAN_POINT('Origin',(0.0106340370755465,0.037,-0.0249035976661791));
#955=CARTESIAN_POINT('',(0.00674734309863841,0.0375,-0.0211502609215687));
#956=CARTESIAN_POINT('Origin',(0.0081860226993157,0.0375,-0.0225395776624867));
#957=CARTESIAN_POINT('Origin',(0.001375,0.042,-0.0183950357810805));
#958=CARTESIAN_POINT('',(0.00275,0.037,-0.0172900715621611));
#959=CARTESIAN_POINT('Origin',(0.0128844368054184,0.042,-0.0295095697084245));
#960=CARTESIAN_POINT('',(0.0128844368054184,0.037,-0.0295095697084245));
#961=CARTESIAN_POINT('Origin',(0.00754316629139926,0.042,-0.013307266963672));
#962=CARTESIAN_POINT('',(0.00313204769460966,0.042,-0.0233974706206321));
#963=CARTESIAN_POINT('',(0.0144182756934675,0.042,-0.0218625443798838));
#964=CARTESIAN_POINT('Origin',(0.00975238911080876,0.037,-0.0256120990877924));
#965=CARTESIAN_POINT('Origin',(0.0107391626922731,0.037,-0.0172843143430875));
#966=CARTESIAN_POINT('Origin',(0.00575471840270921,0.0375,-0.025057266963672));
#967=CARTESIAN_POINT('',(0.00431603880203191,0.0375,-0.023667950222754));
#968=UNCERTAINTY_MEASURE_WITH_UNIT(LENGTH_MEASURE(1.E-5),#972,
'DISTANCE_ACCURACY_VALUE',
'Maximum model space distance between geometric entities at asserted c
onnectivities');
#969=UNCERTAINTY_MEASURE_WITH_UNIT(LENGTH_MEASURE(1.E-5),#972,
'DISTANCE_ACCURACY_VALUE',
'Maximum model space distance between geometric entities at asserted c
onnectivities');
#970=(
GEOMETRIC_REPRESENTATION_CONTEXT(3)
GLOBAL_UNCERTAINTY_ASSIGNED_CONTEXT((#968))
GLOBAL_UNIT_ASSIGNED_CONTEXT((#972,#973,#974))
REPRESENTATION_CONTEXT('','3D')
);
#971=(
GEOMETRIC_REPRESENTATION_CONTEXT(3)
GLOBAL_UNCERTAINTY_ASSIGNED_CONTEXT((#969))
GLOBAL_UNIT_ASSIGNED_CONTEXT((#972,#973,#974))
REPRESENTATION_CONTEXT('','3D')
);
#972=(
LENGTH_UNIT()
NAMED_UNIT(*)
SI_UNIT($,.METRE.)
);
#973=(
NAMED_UNIT(*)
PLANE_ANGLE_UNIT()
SI_UNIT($,.RADIAN.)
);
#974=(
NAMED_UNIT(*)
SI_UNIT($,.STERADIAN.)
SOLID_ANGLE_UNIT()
);
#975=SHAPE_DEFINITION_REPRESENTATION(#976,#977);
#976=PRODUCT_DEFINITION_SHAPE('',$,#979);
#977=SHAPE_REPRESENTATION('',(#600),#970);
#978=PRODUCT_DEFINITION_CONTEXT('part definition',#983,'design');
#979=PRODUCT_DEFINITION('2025-07-25-23-29-53-268','oak - v1',#980,#978);
#980=PRODUCT_DEFINITION_FORMATION('',$,#985);
#981=PRODUCT_RELATED_PRODUCT_CATEGORY('oak - v1','oak - v1',(#985));
#982=APPLICATION_PROTOCOL_DEFINITION('international standard',
'automotive_design',2009,#983);
#983=APPLICATION_CONTEXT(
'Core Data for Automotive Mechanical Design Process');
#984=PRODUCT_CONTEXT('part definition',#983,'mechanical');
#985=PRODUCT('2025-07-25-23-29-53-268','oak - v1','STEP AP242',(#984));
#986=PRESENTATION_STYLE_ASSIGNMENT((#988));
#987=PRESENTATION_STYLE_ASSIGNMENT((#989));
#988=SURFACE_STYLE_USAGE(.BOTH.,#990);
#989=SURFACE_STYLE_USAGE(.BOTH.,#991);
#990=SURFACE_SIDE_STYLE('',(#992));
#991=SURFACE_SIDE_STYLE('',(#993));
#992=SURFACE_STYLE_FILL_AREA(#994);
#993=SURFACE_STYLE_FILL_AREA(#995);
#994=FILL_AREA_STYLE('Steel - Satin',(#996));
#995=FILL_AREA_STYLE('Opaque(157,207,237)',(#997));
#996=FILL_AREA_STYLE_COLOUR('Steel - Satin',#998);
#997=FILL_AREA_STYLE_COLOUR('Opaque(157,207,237)',#999);
#998=COLOUR_RGB('Steel - Satin',0.627450980392157,0.627450980392157,0.627450980392157);
#999=COLOUR_RGB('Opaque(157,207,237)',0.615686274509804,0.811764705882353,
0.929411764705882);
ENDSEC;
END-ISO-10303-21;
